<svg xmlns="http://www.w3.org/2000/svg" xmlns:xlink="http://www.w3.org/1999/xlink" viewBox="0 0 352.84 358.04"><defs><style>.cls-1{fill:url(#radial-gradient);}.cls-2{fill:none;stroke:#353535;stroke-linecap:round;stroke-linejoin:round;stroke-width:15px;}.cls-3{fill:#353535;}</style><radialGradient id="radial-gradient" cx="181.02" cy="183.45" r="153" gradientUnits="userSpaceOnUse"><stop offset="0" stop-color="#f98989"/><stop offset="0.72" stop-color="#f98888"/><stop offset="0.79" stop-color="#f98484"/><stop offset="0.86" stop-color="#f97777"/><stop offset="0.93" stop-color="#f96262"/><stop offset="1" stop-color="#f94848"/></radialGradient></defs><title>back</title><g id="Layer_2" data-name="Layer 2"><g id="Layer_1-2" data-name="Layer 1"><path class="cls-1" d="M300.29,279.28A153,153,0,1,1,334,183.45,152.7,152.7,0,0,1,300.29,279.28Z"/><path class="cls-2" d="M328,247.36q-2.57,5.88-5.58,11.5"/><path class="cls-3" d="M311.84,288.37a168.32,168.32,0,0,1-19.71,22.86c-1.86,1.72-3.66,3.51-5.57,5.18l-5.82,4.91c-4,3.09-8.09,6.2-12.4,8.93a164.61,164.61,0,0,1-27.09,14.52,168.41,168.41,0,0,1-29.53,9.34,189.38,189.38,0,0,1-30.91,3.83,171.18,171.18,0,0,1-31.3-1.79A175.33,175.33,0,0,1,90,335.59a179.24,179.24,0,0,1-26.23-18.08A179.07,179.07,0,0,1,9.7,239C-4.66,198.16-2.88,152.13,13.76,111.8A179.1,179.1,0,0,1,28.93,82.87,177,177,0,0,1,49.09,57.13,180.36,180.36,0,0,1,164.65.81a175.2,175.2,0,0,1,95.64,17.83,178.77,178.77,0,0,1,27.59,17.48,170.76,170.76,0,0,1,42.57,48.32,160.75,160.75,0,0,1,20.86,59.7l.54,3.88c.15,1.3.25,2.61.35,3.91.2,2.6.46,5.19.49,7.79l.11,3.9c.05,1.29.06,2.58,0,3.88-.11,2.59-.16,5.17-.32,7.74l-.68,7.68c-.25,2.54-.6,5.08-1.05,7.59a137.55,137.55,0,0,1-3.4,14.87l-.34,1.16a7.45,7.45,0,0,1-14.53-3.11A152.87,152.87,0,0,0,308.33,99.14c-20.17-30.37-51.46-53.32-86.72-62.76a154,154,0,0,0-26.87-4.8l-3.41-.26c-1.13-.09-2.27-.2-3.41-.2L181.08,31l-6.84.18c-2.28.09-4.55.32-6.82.47A152.55,152.55,0,0,0,36.17,230.42a150.83,150.83,0,0,0,25.75,47.9,152.3,152.3,0,0,0,146.16,55.27,152.28,152.28,0,0,0,50.95-19A154.1,154.1,0,0,0,300.15,279,7.49,7.49,0,0,1,312.07,288Z"/></g></g></svg>