<svg xmlns="http://www.w3.org/2000/svg" viewBox="0 0 209.89 181.81"><defs><style>.cls-1{fill:#353535;}</style></defs><title>Asset 9</title><g id="Layer_2" data-name="Layer 2"><g id="Layer_1-2" data-name="Layer 1"><path class="cls-1" d="M13.87,7.77a36.15,36.15,0,0,0,5.74,1.59,54.72,54.72,0,0,0,5.75.87,76.23,76.23,0,0,0,11.5.3c7.67-.29,15.33-.46,23-.69l46-1.31,46-1.46,23-.74c7.67-.26,15.33-.52,23-1.11a11.2,11.2,0,1,1,1.7,22.34,12.06,12.06,0,0,1-1.7,0c-7.67-.58-15.33-.85-23-1.11l-23-.74-46-1.46-46-1.31c-7.67-.23-15.33-.4-23-.69a76.23,76.23,0,0,0-11.5.3,54.72,54.72,0,0,0-5.75.87A36.15,36.15,0,0,0,13.87,25a9.22,9.22,0,1,1,0-17.24Z"/><path class="cls-1" d="M166.91,22.58a27.61,27.61,0,0,0-3.15,7.24,41.93,41.93,0,0,0-1.4,7.23c-.54,4.83-1.29,9.65-2,14.48s-1.44,9.65-1.81,14.47a95.89,95.89,0,0,0-.07,14.48A130.61,130.61,0,0,0,160.43,95,143.64,143.64,0,0,0,164,109.43c.72,2.41,1.52,4.83,2.39,7.24.44,1.21.91,2.41,1.4,3.62s1,2.41,1.52,3.62a84.75,84.75,0,0,0,7.9,14.47,27.62,27.62,0,1,1-45.31,0,84.75,84.75,0,0,0,7.9-14.47c.55-1.21,1-2.41,1.52-3.62s1-2.41,1.4-3.62c.87-2.41,1.67-4.83,2.39-7.24A143.64,143.64,0,0,0,148.58,95a130.61,130.61,0,0,0,1.94-14.48A94.59,94.59,0,0,0,150.45,66c-.37-4.82-1.1-9.65-1.81-14.47s-1.45-9.65-2-14.48a41.93,41.93,0,0,0-1.4-7.23,27.61,27.61,0,0,0-3.15-7.24,14.7,14.7,0,1,1,24.81,0Z"/><path class="cls-1" d="M93.34,27.39c-5.5,8.3-6.65,16.6-7.78,24.9s-1,16.61-1.4,24.91c-.12,4.15-.34,8.3-.45,12.45s-.17,8.3-.24,12.45l-.11,12.45-.06,6.23a56.43,56.43,0,0,0,.18,6.23v.25c-.06,1.89-.21,3.56-.43,5.34s-.57,3.48-1,5.23a39.07,39.07,0,0,1-4,10.33,21.81,21.81,0,0,1-9,8.89c-.53.24-1.08.45-1.63.67a11,11,0,0,1-1.68.55,19,19,0,0,1-3.45.6L60.6,159c-.57,0-1.11-.06-1.68-.08l-1.69-.1c-.53-.08-1-.18-1.58-.27a24.36,24.36,0,0,1-3.13-.66c-1-.3-2-.53-3-.86-1.88-.69-3.84-1.38-5.59-2.19-.88-.4-1.84-.79-2.7-1.21l-2.59-1.28c-1.81-.84-3.39-1.79-5.13-2.68-6.76-3.64-13.19-7.57-20.35-11.11l-1.48-.73a21,21,0,0,1,18.6-37.63,21.2,21.2,0,0,1,11.38,15.27c.15.85.35,1.66.53,2.49l.64,2.44c.44,1.65,1,3.15,1.53,4.68s1.16,3.05,1.83,4.45,1.34,2.92,2.11,4.2c.37.68.77,1.33,1.16,2s.8,1.3,1.22,1.9l1.3,1.84c.43.63.9,1.12,1.36,1.69a24.07,24.07,0,0,0,6,5.36,8.72,8.72,0,0,0,6.1,1.43,10.29,10.29,0,0,0,5.6-4.26c3.2-4.57,5.15-10.94,6.35-16.93V127a56.42,56.42,0,0,0,.17-6.23l-.05-6.23-.11-12.45c-.07-4.15-.13-8.3-.25-12.45s-.33-8.3-.45-12.45c-.35-8.3-.31-16.6-1.4-24.91S73,35.69,67.51,27.39a15.49,15.49,0,1,1,25.83,0Z"/></g></g></svg>