<svg xmlns="http://www.w3.org/2000/svg" viewBox="0 0 211.75 209.43"><defs><style>.cls-1{fill:#e9b44c;}.cls-2{fill:#50a2a7;}</style></defs><title>ka-colored</title><g id="Layer_2" data-name="Layer 2"><g id="Layer_1-2" data-name="Layer 1"><path class="cls-1" d="M31.55,19.52a30.87,30.87,0,0,0,5.16,1.59,48.75,48.75,0,0,0,5.16.87,61.39,61.39,0,0,0,10.32.3c6.88-.3,13.76-.46,20.64-.7l41.29-1.31,41.28-1.45,20.65-.74c6.88-.26,13.76-.53,20.64-1.12a11.22,11.22,0,0,1,1.9,22.35,13.39,13.39,0,0,1-1.9,0c-6.88-.59-13.76-.86-20.64-1.12l-20.65-.74L114.12,36,72.83,34.69c-6.88-.24-13.76-.4-20.64-.7a61.39,61.39,0,0,0-10.32.3,48.75,48.75,0,0,0-5.16.87,30.87,30.87,0,0,0-5.16,1.59,9.36,9.36,0,1,1,0-17.23Z"/><path class="cls-2" d="M111,103.57a52.35,52.35,0,0,1-3.87,20,54.9,54.9,0,0,1-11.19,17.19,58.14,58.14,0,0,1-16.8,12.26,53.78,53.78,0,0,1-20.64,5.31,54.34,54.34,0,0,1-21.59-3.25A55.92,55.92,0,0,1,18.1,143.49l-2-2a24.29,24.29,0,0,1-1.9-2l-1.78-2.16a25.62,25.62,0,0,1-1.69-2.23l-1.57-2.32A26.86,26.86,0,0,1,7.7,130.4l-1.33-2.48c-.43-.83-.88-1.66-1.23-2.53A59,59,0,0,1,0,103.57,53.26,53.26,0,0,1,4,81.32,59.66,59.66,0,0,1,16.71,62.37C18,61,19.52,59.75,21,58.49S24,56.14,25.58,55c.78-.55,1.65-1,2.48-1.49s1.69-.95,2.54-1.4c1.75-.83,3.55-1.57,5.33-2.28s3.71-1.15,5.55-1.66,3.8-.72,5.68-1S51,47,52.88,47s3.77.25,5.62.44A60.35,60.35,0,0,1,79,54.51,65.69,65.69,0,0,1,95.22,67,60.49,60.49,0,0,1,106.6,83.74,49.73,49.73,0,0,1,111,103.57Zm-33.39,0a35.94,35.94,0,0,0-.81-8.52,18.41,18.41,0,0,0-3.67-7.83,13.43,13.43,0,0,0-7-4.5,11.77,11.77,0,0,0-7.66,1,13.14,13.14,0,0,1-1.62.83,12.56,12.56,0,0,1-1.44.91,10.14,10.14,0,0,1-1.31.92c-.4.38-.8.69-1.19,1s-.74.7-1.1,1a13.62,13.62,0,0,1-1,1.1c-.29.43-.67.72-1,1.12s-.64.78-.9,1.22a17.8,17.8,0,0,0-2.38,5.6,60.6,60.6,0,0,0-1.21,6.11,23.06,23.06,0,0,0,.1,6.53,26.29,26.29,0,0,0,.76,3.28,3.46,3.46,0,0,0,.29.8c.11.26.21.53.31.81.2.55.51,1,.74,1.56a15,15,0,0,0,11,8.23A14.75,14.75,0,0,0,66,124a15.79,15.79,0,0,0,6.44-4.74,22.14,22.14,0,0,0,3.86-7.37A30.41,30.41,0,0,0,77.61,103.57Z"/><path class="cls-2" d="M93.73,104.85a74.45,74.45,0,0,1,4.14-11.34,65.4,65.4,0,0,1,6-10.66l1.84-2.51c.59-.85,1.32-1.61,2-2.42A60.31,60.31,0,0,1,112,73.31c.76-.74,1.59-1.41,2.39-2.11l1.22-1c.41-.35.85-.65,1.28-1l2.62-1.9,2.78-1.72a50,50,0,0,1,12.17-5.23l1.62-.47c.54-.15,1.1-.23,1.65-.35l3.33-.63c2.24-.21,4.5-.52,6.77-.51A51.4,51.4,0,0,1,161.48,60,55.14,55.14,0,0,1,174.23,65,65.3,65.3,0,0,1,194.59,82.6a79.29,79.29,0,0,1,12.31,23.56,85.92,85.92,0,0,1,4.2,26.33c0,2.25-.07,4.52-.25,6.78s-.49,4.52-.72,6.82-.39,4.64-.44,7.08a50,50,0,0,0,.37,7.76l1.39,10.45a33.6,33.6,0,1,1-43.32-27.61,10,10,0,0,0,4-2.4,10.87,10.87,0,0,0,2.37-3.34,38.73,38.73,0,0,0,2.11-7.77,53.17,53.17,0,0,0,.34-16.52A46.6,46.6,0,0,0,171.85,98a37.84,37.84,0,0,0-10.36-12.35,30.05,30.05,0,0,0-14.43-6l-1-.13c-.34,0-.67,0-1,0l-2-.08-2,.13c-.34,0-.68,0-1,.07l-1,.17a30.72,30.72,0,0,0-8,2.3l-1.95.88-1.88,1.09c-.32.18-.65.34-1,.55l-.9.63c-.6.43-1.23.81-1.81,1.28a40.9,40.9,0,0,0-3.41,2.93A38.08,38.08,0,0,0,117,92.76a51.64,51.64,0,0,0-9.23,16.34l-.09.25a7.31,7.31,0,0,1-13.9-4.5Z"/><path class="cls-2" d="M119.77,28.14a36.65,36.65,0,0,0-3.18,8.18,57.52,57.52,0,0,0-1.54,8.19c-.67,5.46-1.53,10.92-2.36,16.38s-1.69,10.92-2.2,16.38A126.21,126.21,0,0,0,110,93.64c.16,5.46.67,10.92,1.37,16.38s1.64,10.92,2.87,16.38a154.15,154.15,0,0,0,4.58,16.38,99.56,99.56,0,0,0,7,16.37,25.94,25.94,0,1,1-45.31,0,99.49,99.49,0,0,0,7-16.37,154.22,154.22,0,0,0,4.59-16.38c1.22-5.46,2.15-10.92,2.86-16.38s1.21-10.92,1.38-16.38a126.22,126.22,0,0,0-.55-16.37c-.51-5.46-1.37-10.92-2.2-16.38S91.94,50,91.27,44.51a57.52,57.52,0,0,0-1.54-8.19,36.18,36.18,0,0,0-3.18-8.18,19,19,0,1,1,33.22,0Z"/></g></g></svg>