<svg xmlns="http://www.w3.org/2000/svg" viewBox="0 0 201.79 177.51"><defs><style>.cls-1{fill:#353535;}</style></defs><title>Asset 14</title><g id="Layer_2" data-name="Layer 2"><g id="Layer_1-2" data-name="Layer 1"><path class="cls-1" d="M24.49,7.11A30,30,0,0,0,29.65,8.7a44.12,44.12,0,0,0,5.16.87,61.48,61.48,0,0,0,10.33.3C52,9.58,58.9,9.41,65.78,9.18l41.28-1.31,41.29-1.46L169,5.67c6.88-.26,13.76-.53,20.64-1.11a11.21,11.21,0,1,1,1.9,22.34,12.05,12.05,0,0,1-1.9,0c-6.88-.59-13.76-.85-20.64-1.11l-20.64-.74-41.29-1.46L65.78,22.28c-6.88-.23-13.76-.4-20.64-.69a61.48,61.48,0,0,0-10.33.3,44.12,44.12,0,0,0-5.16.87,30,30,0,0,0-5.16,1.59,9.36,9.36,0,1,1,0-17.24Z"/><path class="cls-1" d="M98.76,91.16c-.06,1.55-.13,3.1-.22,4.64s-.4,3.09-.64,4.62-.72,3-1.09,4.54-1,3-1.53,4.42a50,50,0,0,1-10,15.66A50.6,50.6,0,0,1,70,136.13a47.82,47.82,0,0,1-37.85,1.42A49.61,49.61,0,0,1,15.62,126.9,50.61,50.61,0,0,1,4.36,110.61,52.74,52.74,0,0,1,0,91.16,49,49,0,0,1,3.58,71.42,53.24,53.24,0,0,1,14.66,54.55,46.54,46.54,0,0,1,31.52,43.28a42.5,42.5,0,0,1,19.92-2.62,51.83,51.83,0,0,1,18.47,5.83A55.63,55.63,0,0,1,84.73,57.74,53,53,0,0,1,94.91,73.09,46.69,46.69,0,0,1,98.76,91.16Zm-23,0a35.78,35.78,0,0,0-1.36-10.28,24.55,24.55,0,0,0-4.88-9.2,19.41,19.41,0,0,0-8.41-5.74,17.64,17.64,0,0,0-9.65-.27,26.43,26.43,0,0,0-14.57,9.2,23.63,23.63,0,0,0-4,7.68,37.16,37.16,0,0,0-1.64,8.61,28.85,28.85,0,0,0,.86,8.92,26.51,26.51,0,0,0,3.8,8.25,21,21,0,0,0,15.53,9.26A20.43,20.43,0,0,0,61,116.1,22,22,0,0,0,69,110.2a27.12,27.12,0,0,0,5-8.89l.37-1.24a7.53,7.53,0,0,0,.36-1.23c.16-.84.41-1.67.53-2.52s.25-1.7.34-2.56S75.68,92,75.74,91.16Z"/><path class="cls-1" d="M88.07,92.87a72,72,0,0,1,4.11-11.08,64.61,64.61,0,0,1,6-10.37L100,69c.58-.83,1.3-1.56,1.94-2.34a59,59,0,0,1,4.23-4.44c.74-.71,1.55-1.35,2.33-2l1.18-1c.4-.33.84-.62,1.26-.93l2.54-1.82,2.69-1.64a48.07,48.07,0,0,1,11.76-4.93l1.56-.44c.52-.14,1.06-.22,1.59-.32l3.19-.59c2.16-.17,4.33-.47,6.51-.43a49.43,49.43,0,0,1,13,1.64,53.45,53.45,0,0,1,12.16,5,62.35,62.35,0,0,1,19.36,17.05,75.6,75.6,0,0,1,11.6,22.78,82.62,82.62,0,0,1,3.75,25.36q0,3.24-.31,6.49c-.18,2.18-.5,4.33-.77,6.52s-.49,4.41-.63,6.71a54,54,0,0,0-.07,7.23l.36,5.72a23.47,23.47,0,1,1-34-19.48,10.94,10.94,0,0,0,3.59-2.92,13.83,13.83,0,0,0,2.17-3.72,43.73,43.73,0,0,0,2-8.34,56.44,56.44,0,0,0-.11-17.5,49.66,49.66,0,0,0-5.84-16.5A40.11,40.11,0,0,0,155.7,71.21a32.24,32.24,0,0,0-15.61-6.07L139,65c-.35,0-.71,0-1.07,0l-2.15,0-2.15.19a9.85,9.85,0,0,0-1.08.1l-1.06.19A32.63,32.63,0,0,0,123.09,68l-2,1-2,1.17c-.32.2-.66.37-1,.59l-.94.67c-.62.46-1.27.87-1.87,1.36-1.17,1-2.41,2-3.5,3.1a40.81,40.81,0,0,0-3.22,3.47,54,54,0,0,0-9.33,16.9l-.06.19a5.85,5.85,0,0,1-11.14-3.59Z"/><path class="cls-1" d="M107.11,15.73A48.36,48.36,0,0,0,105,23.92c-.5,2.73-.79,5.46-1,8.19l-.74,8.19-.82,8.18c-.27,2.73-.57,5.46-.8,8.19s-.49,5.46-.66,8.19c-.34,5.46-.47,10.92-.36,16.38A272,272,0,0,0,103.41,114c.82,5.46,1.8,10.92,3,16.38a130.72,130.72,0,0,0,4.67,16.38,16,16,0,1,1-30,0,132.38,132.38,0,0,0,4.66-16.38C87,124.91,88,119.45,88.8,114a268,268,0,0,0,2.81-32.75q.17-8.19-.36-16.38c-.16-2.73-.4-5.46-.66-8.19s-.52-5.46-.79-8.19L89,40.3l-.74-8.19c-.23-2.73-.53-5.46-1-8.19a49.28,49.28,0,0,0-2.1-8.19,11.71,11.71,0,1,1,22,0Z"/></g></g></svg>