<svg xmlns="http://www.w3.org/2000/svg" viewBox="0 0 208.53 181.81"><defs><style>.cls-1{fill:#e9b44c;}.cls-2{fill:#50a2a7;}</style></defs><title>kha-colored</title><g id="Layer_2" data-name="Layer 2"><g id="Layer_1-2" data-name="Layer 1"><path class="cls-1" d="M12.5,7.77a36.26,36.26,0,0,0,5.75,1.59,53.94,53.94,0,0,0,5.75.87,76.16,76.16,0,0,0,11.5.3c7.66-.29,15.33-.46,23-.69l46-1.31,46-1.46,23-.74c7.66-.26,15.33-.52,23-1.11a11.2,11.2,0,1,1,1.71,22.34,12.2,12.2,0,0,1-1.71,0c-7.66-.58-15.33-.85-23-1.11l-23-.74-46-1.46-46-1.31c-7.66-.23-15.33-.4-23-.69a76.16,76.16,0,0,0-11.5.3,53.94,53.94,0,0,0-5.75.87A36.26,36.26,0,0,0,12.5,25a9.22,9.22,0,1,1,0-17.24Z"/><path class="cls-2" d="M165.55,22.58a27.65,27.65,0,0,0-3.16,7.24A41,41,0,0,0,161,37.05c-.55,4.83-1.29,9.65-2,14.48S157.56,61.18,157.2,66a93.34,93.34,0,0,0-.07,14.48A128.28,128.28,0,0,0,159.07,95a140.91,140.91,0,0,0,3.51,14.47c.73,2.41,1.52,4.83,2.4,7.24.44,1.21.9,2.41,1.4,3.62s1,2.41,1.51,3.62a85.45,85.45,0,0,0,7.9,14.47,27.62,27.62,0,1,1-45.31,0,84.06,84.06,0,0,0,7.9-14.47c.55-1.21,1-2.41,1.52-3.62s1-2.41,1.4-3.62c.88-2.41,1.67-4.83,2.4-7.24A143.57,143.57,0,0,0,147.21,95a128.28,128.28,0,0,0,1.94-14.48A93.34,93.34,0,0,0,149.08,66c-.36-4.82-1.1-9.65-1.81-14.47s-1.44-9.65-2-14.48a41,41,0,0,0-1.39-7.23,27.65,27.65,0,0,0-3.16-7.24,14.7,14.7,0,1,1,24.82,0Z"/><path class="cls-2" d="M160.6,87.81a38.63,38.63,0,0,1-17.13,32.07,37.75,37.75,0,0,1-13.29,5.52,37,37,0,0,1-30.27-7.32,38.16,38.16,0,0,1-10.62-13.32,39.12,39.12,0,0,1,0-33.89A38.16,38.16,0,0,1,99.91,57.55a37,37,0,0,1,30.27-7.32,37.75,37.75,0,0,1,13.29,5.52A38.63,38.63,0,0,1,160.6,87.81Zm-16.64,0a9,9,0,0,0-5.41-8.36,7.66,7.66,0,0,0-4.74-.4,7.21,7.21,0,0,0-3.63,2.16,5.07,5.07,0,0,0-1,5.62,1.94,1.94,0,0,0,1,1c.33.11.5,0,.5,0s-.17-.14-.5,0a1.94,1.94,0,0,0-1,1,5.07,5.07,0,0,0,1,5.62,7.21,7.21,0,0,0,3.63,2.16,7.66,7.66,0,0,0,4.74-.4A9,9,0,0,0,144,87.81Z"/><path class="cls-2" d="M25.31,25.29l.31-.57.17-.27.34-.54.59-.86c.38-.51.76-1,1.13-1.47.75-.92,1.52-1.75,2.3-2.54a38.35,38.35,0,0,1,4.94-4.16A40.79,40.79,0,0,1,46,9.43l2.82-.81c.94-.23,1.88-.41,2.81-.6s1.87-.3,2.79-.42a28.28,28.28,0,0,1,2.83-.27,41.05,41.05,0,0,1,11.66.86A36.32,36.32,0,0,1,89.11,20.11,29.85,29.85,0,0,1,91,22.59l.88,1.32c.29.47.55,1,.82,1.45a28.59,28.59,0,0,1,1.45,3.15c.21.59.4,1.22.58,1.83a8,8,0,0,1,.24.87l.13.65c.18.82.34,1.83.48,2.77a28.94,28.94,0,0,1,.24,3.16c0,.55,0,1.1,0,1.65l-.14,1.7-.08.85-.16.85-.35,1.69A32,32,0,0,1,94,47.75a31.85,31.85,0,0,1-1.47,2.92c-.57.87-1.11,1.78-1.71,2.59L89,55.51a40.74,40.74,0,0,1-4,3.69c-.67.53-1.34,1.13-2,1.59l-2,1.42c-.68.49-1.35.91-2,1.31l-2,1.24c-1.34.82-2.7,1.48-4,2.24s-2.69,1.35-4,2S66.26,70.3,65,70.91c-4.94,2.42-9.8,5-14.52,7.83-2.35,1.42-4.68,2.88-6.94,4.43-1.13.77-2.24,1.57-3.32,2.39-.53.41-1.08.8-1.58,1.23l-.76.63a3.48,3.48,0,0,0-.58.57l5.75-14.07h0l1.24,2.72,1.36,2.88q1.39,2.88,2.87,5.73,3,5.7,6.27,11.15a156.87,156.87,0,0,0,14.37,20.18c5.16,6,10.76,11.34,16.3,14.77.7.4,1.36.84,2.06,1.2l2.15,1.1c.84.41,1.72.88,2.51,1.23l1.18.51.58.25.54.2,1.06.38.9.25a2.19,2.19,0,0,0,.42.11l.31,0,.31,0c.07,0,.09,0,.13-.06l.1-.06-.21-.17-.11-.07-.3-.13-.36-.11-.42-.11a9.5,9.5,0,0,0-1.46-.21c-.41,0-.82,0-1.23,0s-.71,0-1.47.09a15.82,15.82,0,0,0-1.93.31,18.57,18.57,0,0,0-2.74.83l-.82.34c-.32.13-.64.28-1,.44s-.61.32-.91.49l-.45.26-.54.34a19.52,19.52,0,0,0-2.35,1.77c-.51.45-1.11,1-1.62,1.57-.27.29-.5.56-.77.87a22.66,22.66,0,0,0-1.77,2.47,22.66,22.66,0,0,1,38.55,23.81,22,22,0,0,1-1.84,2.55c-.29.35-.55.64-.84,1a23.65,23.65,0,0,1-1.77,1.72,25.18,25.18,0,0,1-2.69,2c-.24.16-.47.31-.63.4l-.54.31c-.36.21-.73.41-1.1.59s-.75.37-1.13.54l-.58.25-.44.17a28.1,28.1,0,0,1-3.55,1.08c-.92.19-1.84.35-2.77.45a19.6,19.6,0,0,1-2.31.15c-.69,0-1.39,0-2.08,0-1.09-.08-2.1-.2-3.15-.36-.28,0-.46-.08-.66-.12l-.59-.13L88,179.54c-.37-.09-.83-.2-1.13-.3l-.92-.3-1.84-.64-1.5-.64L81.17,177l-1.25-.64-1.24-.65c-.42-.22-.73-.42-1.1-.64-.71-.42-1.45-.85-2.12-1.28l-1.9-1.27-.94-.64-.86-.64L70.05,170c-1.12-.84-2.11-1.66-3.16-2.49-.49-.38-1.11-.91-1.67-1.37l-1.71-1.45c-1.13-1-2.18-2-3.25-3A112.62,112.62,0,0,1,40.9,135.81a187.86,187.86,0,0,1-12.28-27C27,104.27,25.43,99.71,24,95.13c-.69-2.3-1.36-4.6-2-6.93l-.93-3.5L20.19,81h0l-.52-3.57a9.69,9.69,0,0,1,6.28-10.5c.54-.2.85-.26,1.25-.38l1.1-.32c.72-.19,1.42-.41,2.12-.61q2.1-.6,4.14-1.23c2.73-.84,5.4-1.73,8.06-2.63,5.31-1.84,10.52-3.81,15.67-5.89,2.68-1.08,4.87-2.06,7.13-3.17,1.07-.59,2.19-1.16,3.2-1.79l1.49-1a12.63,12.63,0,0,0,1.41-1l1.31-1.05A13.28,13.28,0,0,0,74,46.79a16,16,0,0,0,1.89-2.19,6,6,0,0,0,1.26-3.66,4.78,4.78,0,0,0-.11-.73,2.21,2.21,0,0,1-.08-.37l-.14-.41c-.05-.26-.23-.63-.33-1l-.52-1.25-.15-.35c-.05-.13-.07-.06-.1-.11a.45.45,0,0,1-.14-.1c-.2-.16-.26-.29-.51-.5l-.3-.3-.37-.33c-.21-.22-.55-.43-.82-.66a15.81,15.81,0,0,0-4.08-2.21A16.79,16.79,0,0,0,60,32.11a20.65,20.65,0,0,0-4.85,1.65,14.06,14.06,0,0,0-3.54,2.52,11.16,11.16,0,0,0-1.17,1.43,6.7,6.7,0,0,0-.37.63,1.06,1.06,0,0,0-.07.22h0l.07-.09,0,0,.19-.34a14,14,0,0,1-25-12.8Z"/></g></g></svg>