<svg xmlns="http://www.w3.org/2000/svg" viewBox="0 0 208.53 181.81"><defs><style>.cls-1{fill:#353535;}</style></defs><title>Asset 13</title><g id="Layer_2" data-name="Layer 2"><g id="Layer_1-2" data-name="Layer 1"><path class="cls-1" d="M12.5,7.77a36.26,36.26,0,0,0,5.75,1.59,53.94,53.94,0,0,0,5.75.87,76.16,76.16,0,0,0,11.5.3c7.66-.29,15.33-.46,23-.69l46-1.31,46-1.46,23-.74c7.66-.26,15.33-.52,23-1.11a11.2,11.2,0,1,1,1.71,22.34,12.2,12.2,0,0,1-1.71,0c-7.66-.58-15.33-.85-23-1.11l-23-.74-46-1.46-46-1.31c-7.66-.23-15.33-.4-23-.69a76.16,76.16,0,0,0-11.5.3,53.94,53.94,0,0,0-5.75.87A36.26,36.26,0,0,0,12.5,25a9.22,9.22,0,1,1,0-17.24Z"/><path class="cls-1" d="M165.55,22.58a27.65,27.65,0,0,0-3.16,7.24A41,41,0,0,0,161,37.05c-.55,4.83-1.29,9.65-2,14.48S157.56,61.18,157.2,66a93.34,93.34,0,0,0-.07,14.48A128.28,128.28,0,0,0,159.07,95a140.91,140.91,0,0,0,3.51,14.47c.73,2.41,1.52,4.83,2.4,7.24.44,1.21.9,2.41,1.4,3.62s1,2.41,1.51,3.62a85.45,85.45,0,0,0,7.9,14.47,27.62,27.62,0,1,1-45.31,0,84.06,84.06,0,0,0,7.9-14.47c.55-1.21,1-2.41,1.52-3.62s1-2.41,1.4-3.62c.88-2.41,1.67-4.83,2.4-7.24A143.57,143.57,0,0,0,147.21,95a128.28,128.28,0,0,0,1.94-14.48A93.34,93.34,0,0,0,149.08,66c-.36-4.82-1.1-9.65-1.81-14.47s-1.44-9.65-2-14.48a41,41,0,0,0-1.39-7.23,27.65,27.65,0,0,0-3.16-7.24,14.7,14.7,0,1,1,24.82,0Z"/><path class="cls-1" d="M156.57,87.81a30.47,30.47,0,0,1-15.44,26.42,29.86,29.86,0,0,1-10.95,3.66,29.86,29.86,0,0,1-31-17.25,30.69,30.69,0,0,1,0-25.66,29.8,29.8,0,0,1,31-17.24,29.67,29.67,0,0,1,10.95,3.66,30.47,30.47,0,0,1,15.44,26.41Zm-8.58,0a15,15,0,0,0-1.59-6.71,14.53,14.53,0,0,0-4.33-5.17,14.13,14.13,0,0,0-5.92-2.53,14.35,14.35,0,0,0-6,.3,13.34,13.34,0,0,0-4.83,2.44,14.22,14.22,0,0,0-3.25,3.59,15.08,15.08,0,0,0,0,16.17,14.39,14.39,0,0,0,3.25,3.59,13.34,13.34,0,0,0,4.83,2.44,14.35,14.35,0,0,0,6,.3,14.13,14.13,0,0,0,5.92-2.53,14.61,14.61,0,0,0,4.33-5.17A15,15,0,0,0,148,87.81Z"/><path class="cls-1" d="M28.91,27.13l.24-.43.14-.23.28-.45.5-.74c.33-.44.65-.89,1-1.29.65-.81,1.33-1.55,2-2.26A36,36,0,0,1,37.46,18a37.28,37.28,0,0,1,9.87-5,42.66,42.66,0,0,1,10.33-2,37,37,0,0,1,10.68.68A33.28,33.28,0,0,1,86.87,22.24a27.21,27.21,0,0,1,1.73,2.21l.81,1.18c.25.42.49.86.74,1.29a25.33,25.33,0,0,1,1.31,2.77c.19.51.36,1,.52,1.58.08.25.18.57.22.76l.14.6A24.93,24.93,0,0,1,92.49,44c-.26,1-.57,1.94-.92,2.87s-.81,1.81-1.29,2.63-1,1.61-1.52,2.35L87.07,54a40.61,40.61,0,0,1-3.66,3.46c-.63.51-1.25,1.08-1.89,1.52L79.6,60.29a22.88,22.88,0,0,1-1.93,1.27l-2,1.2c-1.29.79-2.61,1.44-3.92,2.18s-2.63,1.31-4,2-2.55,1.24-3.8,1.83c-5,2.37-9.88,4.88-14.69,7.55C47,77.64,44.58,79,42.27,80.47c-1.17.72-2.32,1.45-3.44,2.21-.56.38-1.13.75-1.67,1.15S36,84.63,35.68,85l4.09-10h0L41,77.8l1.29,3q1.34,3,2.75,5.9c1.89,3.91,3.9,7.76,6,11.52a163.32,163.32,0,0,0,14.07,21.16c5.14,6.45,10.79,12.25,16.74,16.37.75.47,1.47,1,2.24,1.45s1.46.86,2.33,1.34,1.76,1,2.6,1.41,1.7.87,2.47,1.19l1.18.52,1.08.4a8,8,0,0,0,1,.31l.44.13.32,0,.3.05.08-.06h0s-.06,0-.09-.07a1.43,1.43,0,0,0-.32-.11,3.83,3.83,0,0,0-.79-.13,6.34,6.34,0,0,0-.76,0l-.92.05a8.82,8.82,0,0,0-1.25.21,11,11,0,0,0-1.84.55l-.56.23c-.21.09-.43.19-.64.3s-.42.21-.63.33l-.67.42a12.14,12.14,0,0,0-1.63,1.22,14.34,14.34,0,0,0-1.13,1.09c-.18.2-.35.39-.53.62a15.4,15.4,0,0,0-1.26,1.74,16.13,16.13,0,0,1,27.45,17,17,17,0,0,1-1.32,1.83c-.21.25-.4.46-.61.69a16.44,16.44,0,0,1-1.28,1.24,20.13,20.13,0,0,1-2,1.48c-.39.25-.58.36-.87.52s-.53.3-.81.43l-.83.4-.42.18-.33.13a21.1,21.1,0,0,1-2.65.81c-.69.14-1.39.26-2.09.34a13.41,13.41,0,0,1-1.76.11c-.54,0-1.07,0-1.61,0-.85-.06-1.66-.16-2.48-.28s-1.32-.26-2-.42a9.42,9.42,0,0,1-.92-.24l-.78-.24-1.54-.53-1.29-.53-1.27-.56-1.11-.55c-.75-.36-1.49-.74-2.12-1.11l-1.94-1.13-1.78-1.14c-1.22-.76-2.23-1.54-3.34-2.31s-2-1.54-3.07-2.31S68,160.92,67,160.06s-2-1.83-3.07-2.75A109.88,109.88,0,0,1,45,133a186.51,186.51,0,0,1-12.58-26q-2.61-6.63-4.84-13.33c-.74-2.24-1.45-4.48-2.13-6.75l-1-3.41c-.33-1.17-.62-2.26-1-3.57h0l-.39-2.16A7,7,0,0,1,27.58,70c.87-.33,1.48-.53,2.2-.77l2-.71c1.35-.45,2.69-.93,4-1.4,2.67-.93,5.29-1.91,7.91-2.88q7.83-3,15.5-6.17c2.63-1.09,4.92-2.13,7.24-3.28,1.1-.62,2.26-1.19,3.32-1.85l1.56-1a12.88,12.88,0,0,0,1.5-1.05l1.42-1.1c.48-.35.84-.77,1.27-1.15a19.3,19.3,0,0,0,2.18-2.41,9.28,9.28,0,0,0,2-4.71,8.51,8.51,0,0,0-.18-2.27,11.66,11.66,0,0,0-.32-1.26c-.16-.48-.29-.92-.51-1.47l-.15-.39a.82.82,0,0,0-.12-.22c-.08-.12-.13-.23-.2-.36-.23-.28-.36-.56-.65-.88l-.37-.46-.45-.47a10.76,10.76,0,0,0-1-.93,18.29,18.29,0,0,0-4.81-3A19.91,19.91,0,0,0,59.6,28.54a24.85,24.85,0,0,0-5.78,1.71,18.32,18.32,0,0,0-4.6,3A16.08,16.08,0,0,0,47.51,35c-.24.31-.47.62-.65.91s-.15.27-.22.39l-.06.14h0l.12-.2a10,10,0,0,1-17.81-9.12Z"/></g></g></svg>